HIERARCHY
ROOT RootJoint
{
    OFFSET   0.000000   0.000000   0.000000
    CHANNELS 6 Xposition Yposition Zposition Xrotation Yrotation Zrotation
    JOINT pelvis_lowerback
    {
        OFFSET   0.000000   0.093605   0.000000
        CHANNELS 3 Xrotation Yrotation Zrotation
        JOINT lowerback_torso
        {
            OFFSET   0.000000   0.100000   0.000000
            CHANNELS 3 Xrotation Yrotation Zrotation
            JOINT torso_head
            {
                OFFSET   0.000000   0.282350   0.000000
                CHANNELS 3 Xrotation Yrotation Zrotation
                End Site
                {
                    OFFSET   0.000000   0.192650   0.000000
                }
            }
            JOINT rTorso_Clavicle
            {
                OFFSET  -0.001000   0.157500   0.000000
                CHANNELS 3 Xrotation Yrotation Zrotation
                JOINT rShoulder
                {
                    OFFSET  -0.117647   0.000000   0.000000
                    CHANNELS 3 Xrotation Yrotation Zrotation
                    JOINT rElbow
                    {
                        OFFSET  -0.245000   0.000000   0.000000
                        CHANNELS 3 Xrotation Yrotation Zrotation
                        JOINT rWrist
                        {
                            OFFSET  -0.240000   0.000000   0.000000
                            CHANNELS 3 Xrotation Yrotation Zrotation
                            End Site
                            {
                                OFFSET  -0.116353  -0.002500   0.000000
                            }
                        }
                    }
                }
            }
            JOINT lTorso_Clavicle
            {
                OFFSET   0.001000   0.157500   0.000000
                CHANNELS 3 Xrotation Yrotation Zrotation
                JOINT lShoulder
                {
                    OFFSET   0.117647   0.000000   0.000000
                    CHANNELS 3 Xrotation Yrotation Zrotation
                    JOINT lElbow
                    {
                        OFFSET   0.245000   0.000000   0.000000
                        CHANNELS 3 Xrotation Yrotation Zrotation
                        JOINT lWrist
                        {
                            OFFSET   0.240000   0.000000   0.000000
                            CHANNELS 3 Xrotation Yrotation Zrotation
                            End Site
                            {
                                OFFSET   0.116353  -0.002500   0.000000
                            }
                        }
                    }
                }
            }
        }
    }
    JOINT rHip
    {
        OFFSET  -0.100000  -0.051395   0.000000
        CHANNELS 3 Xrotation Yrotation Zrotation
        JOINT rKnee
        {
            OFFSET   0.000000  -0.410000   0.000000
            CHANNELS 3 Xrotation Yrotation Zrotation
            JOINT rAnkle
            {
                OFFSET   0.000000  -0.390000   0.000000
                CHANNELS 3 Xrotation Yrotation Zrotation
                JOINT rToeJoint
                {
                    OFFSET   0.000000  -0.050000   0.130000
                    CHANNELS 3 Xrotation Yrotation Zrotation
                    End Site
                    {
                        OFFSET  -0.010000   0.002000   0.060000
                    }
                }
            }
        }
    }
    JOINT lHip
    {
        OFFSET   0.100000  -0.051395   0.000000
        CHANNELS 3 Xrotation Yrotation Zrotation
        JOINT lKnee
        {
            OFFSET   0.000000  -0.410000   0.000000
            CHANNELS 3 Xrotation Yrotation Zrotation
            JOINT lAnkle
            {
                OFFSET   0.000000  -0.390000   0.000000
                CHANNELS 3 Xrotation Yrotation Zrotation
                JOINT lToeJoint
                {
                    OFFSET   0.000000  -0.050000   0.130000
                    CHANNELS 3 Xrotation Yrotation Zrotation
                    End Site
                    {
                        OFFSET   0.010000   0.002000   0.060000
                    }
                }
            }
        }
    }
}
MOTION
Frames: 11
Frame Time:   0.008333
 -2.556589   0.818921   2.909134 171.005787 -23.743858 166.843969  42.962698   0.940761  -4.033491   0.954263   4.529843  -2.292912 -11.721071  -2.850788  -1.471583  -5.009975  26.743308   6.579644 -15.530956  23.008391  43.242508   0.000162  26.884573  -0.000397  -5.486218   4.984654   0.263354   1.774459 -11.132891  -4.023810  11.121318  -7.665999 -36.002876  -0.000558 -54.762432  -0.002038  -4.293681  -9.675730   6.144924 -50.212698  -9.709737 -16.285081  37.945965  -0.001119   0.002231   2.207566  -2.085980   7.930506  -1.627741  -0.000014   0.000003 -39.170470  -0.002170  25.922552  58.040539  -0.000835   0.000234 -26.478488  11.037207   2.316994   2.513333  -0.002116   0.000160
 -2.554101   0.817617   2.905255 170.963089 -23.730571 167.022565  43.133207   0.755102  -3.912095   0.825028   4.552420  -2.306440 -11.876076  -3.046192  -1.471467  -4.964466  26.918642   6.487285 -15.845125  22.844436  43.229018   0.000183  26.824161  -0.000513  -5.562527   4.969005   0.326246   1.892310 -11.043544  -4.080529  11.158343  -7.479150 -36.001066  -0.000349 -54.595934  -0.001710  -4.355268  -9.685430   6.135144 -50.298106  -9.709456 -16.380121  37.760012  -0.000707   0.001945   2.506446  -2.175361   7.760466  -1.626658  -0.000011   0.000000 -39.060911   0.036575  26.047522  58.099592  -0.000806   0.000268 -26.642442  11.017902   2.397228   2.622760  -0.002058   0.000151
 -2.551481   0.816188   2.901252 170.915783 -23.727127 167.216485  43.301031   0.575592  -3.789946   0.696852   4.574566  -2.320199 -12.027144  -3.234751  -1.470628  -4.942673  27.090630   6.393803 -16.150202  22.696293  43.200332   0.000201  26.768688  -0.000580  -5.639668   4.949282   0.349952   2.009234 -10.954149  -4.145229  11.198208  -7.299326 -36.006030  -0.000180 -54.435256  -0.001415  -4.417324  -9.672165   6.130934 -50.380863  -9.711243 -16.474103  37.630099  -0.000413   0.001662   2.789372  -2.261082   7.601870  -1.612659  -0.000005  -0.000024 -38.957394   0.077198  26.168872  58.167678  -0.000809   0.000317 -26.808384  10.989240   2.468074   2.728451  -0.002002   0.000144
 -2.548716   0.814649   2.897117 170.855786 -23.730901 167.425126  43.456206   0.409685  -3.675179   0.571566   4.596970  -2.335237 -12.168495  -3.411375  -1.468975  -4.933238  27.253196   6.300193 -16.441015  22.561205  43.164070   0.000205  26.719031  -0.000603  -5.713769   4.941676   0.346447   2.121660 -10.869207  -4.211024  11.237935  -7.130719 -36.014649  -0.000028 -54.283732  -0.001132  -4.478072  -9.647173   6.119658 -50.456292  -9.712944 -16.563025  37.517758  -0.000180   0.001412   3.053820  -2.341927   7.454275  -1.598584  -0.000004  -0.000042 -38.861021   0.116399  26.281185  58.236753  -0.000820   0.000362 -26.972486  10.960150   2.532729   2.832212  -0.001959   0.000139
 -2.545795   0.813009   2.892841 170.781344 -23.742652 167.648207  43.597178   0.257472  -3.569616   0.449156   4.619606  -2.352154 -12.300507  -3.576320  -1.467291  -4.930885  27.406130   6.208535 -16.716116  22.437285  43.124398   0.000196  26.674196  -0.000595  -5.784759   4.944466   0.327576   2.228136 -10.789235  -4.275139  11.276174  -6.973229 -36.024775   0.000116 -54.141835  -0.000859  -4.536753  -9.618613   6.103464 -50.523442  -9.715096 -16.646300  37.415398   0.000012   0.001194   3.300592  -2.418081   7.316903  -1.585533  -0.000006  -0.000052 -38.771187   0.153309  26.383528  58.302973  -0.000830   0.000398 -27.132853  10.931657   2.592256   2.935160  -0.001931   0.000135
 -2.542713   0.811268   2.888420 170.692255 -23.763203 167.885290  43.724047   0.118039  -3.473367   0.329698   4.642309  -2.370867 -12.423951  -3.730253  -1.466007  -4.932717  27.549865   6.120171 -16.975262  22.323251  43.083725   0.000177  26.633420  -0.000566  -5.852730   4.954369   0.300532   2.328215 -10.714172  -4.336344  11.312376  -6.826235 -36.035280   0.000251 -54.009305  -0.000598  -4.593114  -9.590006   6.085287 -50.582136  -9.718105 -16.723666  37.321336   0.000169   0.001005   3.530824  -2.489750   7.189033  -1.573493  -0.000011  -0.000058 -38.687181   0.187445  26.476254  58.364351  -0.000833   0.000422 -27.288487  10.903540   2.647166   3.053480  -0.001974   0.000137
 -2.539467   0.809425   2.883852 170.588805 -23.792992 168.136029  43.837423  -0.009657  -3.386012   0.213320   4.664914  -2.391088 -12.539507  -3.873873  -1.465289  -4.937018  27.684885   6.035808 -17.218754  22.218103  43.043444   0.000151  26.596151  -0.000524  -5.917793   4.969004   0.269484   2.421910 -10.643810  -4.394146  11.346360  -6.689066 -36.045611   0.000375 -53.885679  -0.000356  -4.647114  -9.562800   6.066882 -50.632587  -9.722170 -16.795032  37.234963   0.000296   0.000841   3.745640  -2.557142   7.069998  -1.562318  -0.000017  -0.000060 -38.608371   0.218579  26.559994  58.419810  -0.000825   0.000435 -27.438898  10.875535   2.697994   3.154069  -0.001954   0.000135
 -2.536078   0.807398   2.879183 170.497812 -23.908350 168.431323  44.035966  -0.230719  -3.266621   0.041430   4.674281  -2.417576 -12.757556  -4.122466  -1.528398  -4.907086  27.898583   5.930010 -17.645548  22.050220  43.002056   0.000257  26.472827  -0.000783  -6.009089   4.950686   0.346719   2.500458 -10.544633  -4.472739  11.335325  -6.472110 -36.043607   0.000525 -53.798388  -0.000069  -4.700353  -9.539541   6.007708 -50.687680  -9.810405 -16.941577  37.312729   0.000055   0.000611   4.003644  -2.668899   6.841594  -1.478850  -0.000027  -0.000224 -38.533405   0.252130  26.607746  58.480433  -0.000823   0.000490 -27.573227  10.780374   2.687520   3.115211  -0.001434   0.000100
 -2.532524   0.805194   2.874386 170.389303 -24.044128 168.746244  44.225261  -0.447229  -3.157210  -0.135648   4.678016  -2.447958 -12.970013  -4.360712  -1.593394  -4.901639  28.107616   5.823431 -18.056458  21.898713  42.944391   0.000339  26.357371  -0.000926  -6.100152   4.918381   0.377723   2.570884 -10.451335  -4.542828  11.322642  -6.265678 -36.036326   0.000658 -53.715379   0.000179  -4.752861  -9.513993   5.977959 -50.727078  -9.900852 -17.079739  37.418895  -0.000231   0.000428   4.247259  -2.775453   6.628662  -1.391491  -0.000067  -0.000342 -38.480576   0.285109  26.641202  58.550827  -0.000851   0.000570 -27.706915  10.670154   2.667870   3.078024  -0.001022   0.000072
 -2.528808   0.802829   2.869449 170.261908 -24.190508 169.079962  44.396531  -0.649978  -3.063421  -0.312592   4.680145  -2.483682 -13.169275  -4.583345  -1.655865  -4.908976  28.305421   5.716229 -18.446909  21.761368  42.879394   0.000381  26.251872  -0.000974  -6.187345   4.897491   0.378110   2.634243 -10.366414  -4.605856  11.308899  -6.073338 -36.026392   0.000767 -53.637711   0.000389  -4.803249  -9.488125   5.960163 -50.748164  -9.990619 -17.201674  37.527404  -0.000495   0.000302   4.474972  -2.875722   6.430428  -1.309274  -0.000125  -0.000405 -38.443389   0.314965  26.659315  58.625931  -0.000896   0.000651 -27.840351  10.559912   2.645036   3.044007  -0.000699   0.000050
 -2.524930   0.800308   2.864362 170.116424 -24.345416 169.432142  44.549046  -0.838490  -2.985107  -0.487679   4.681807  -2.524885 -13.355851  -4.790935  -1.715761  -4.923736  28.491750   5.610683 -18.815903  21.636233  42.811503   0.000384  26.155241  -0.000956  -6.270729   4.888796   0.360572   2.691583 -10.288911  -4.663559  11.294560  -5.894621 -36.015365   0.000850 -53.565484   0.000563  -4.851362  -9.464679   5.948317 -50.752049 -10.080229 -17.306965  37.633646  -0.000726   0.000222   4.687532  -2.969961   6.245861  -1.232748  -0.000194  -0.000427 -38.418085   0.341902  26.662856  58.702087  -0.000944   0.000723 -27.972780  10.452648   2.620536   3.012834  -0.000446   0.000033
